<svg width="81" height="81" viewBox="0 0 81 81" fill="none" xmlns="http://www.w3.org/2000/svg">
    <path d="M40.3529 0.705877C62.2819 0.705877 80.0588 18.4828 80.0588 40.4118C80.0588 62.3407 62.2819 80.1176 40.3529 80.1176C18.424 80.1176 0.647056 62.3407 0.647055 40.4118C0.647054 18.4828 18.424 0.705878 40.3529 0.705877ZM40.3529 75.9278C59.9679 75.9278 75.8689 60.0267 75.8689 40.4118C75.8689 20.7968 59.9679 4.89576 40.3529 4.89577C20.738 4.89577 4.83695 20.7968 4.83695 40.4118C4.83695 60.0267 20.738 75.9278 40.3529 75.9278Z" fill="#454545"/>
    <path d="M40.3529 2.80083C40.3529 1.64382 41.2916 0.70011 42.4469 0.761122C49.2026 1.11785 55.7678 3.19592 61.5119 6.81328C67.8479 10.8034 72.9265 16.5039 76.1616 23.2567C79.3967 30.0095 80.6565 37.5394 79.7954 44.9775C78.9344 52.4156 75.9878 59.4586 71.2955 65.2938C66.6032 71.129 60.3566 75.5184 53.2766 77.9555C46.1966 80.3927 38.5717 80.7782 31.282 79.0676C23.9922 77.357 17.3348 73.62 12.0779 68.2879C7.31213 63.4539 3.87359 57.4876 2.07543 50.9659C1.76789 49.8505 2.48819 48.7313 3.61824 48.483C4.74829 48.2347 5.85956 48.9518 6.17403 50.0652C7.79813 55.8156 10.8506 61.0751 15.0616 65.3463C19.7637 70.1158 25.7187 73.4584 32.2392 74.9885C38.7597 76.5186 45.5799 76.1738 51.9129 73.9938C58.2458 71.8138 63.8332 67.8876 68.0303 62.6682C72.2275 57.4487 74.8632 51.1489 75.6333 44.4957C76.4035 37.8425 75.2767 31.1072 72.383 25.0669C69.4892 19.0267 64.9465 13.9278 59.2791 10.3587C54.2038 7.16247 48.4117 5.30976 42.4468 4.95753C41.2918 4.88933 40.3529 3.95783 40.3529 2.80083Z" fill="#24DD14"/>
</svg>