<svg width="201" height="44" viewBox="0 0 201 44" fill="none" xmlns="http://www.w3.org/2000/svg">
<path d="M27.2877 43C26.943 43 26.7707 42.8506 26.7707 42.5519V42.221C26.7707 41.9821 26.881 41.7454 27.1016 41.511L29.1627 39.3396C29.7831 38.6824 30.3506 38.0988 30.8653 37.5887C31.3801 37.074 31.6374 36.5547 31.6374 36.0308C31.6374 35.5069 31.5064 35.1232 31.2445 34.8796C30.9871 34.6314 30.6585 34.5074 30.2587 34.5074C29.6245 34.5074 29.1834 34.6544 28.9352 34.9485C28.687 35.2426 28.5078 35.5574 28.3975 35.8929C28.2918 36.2192 28.0988 36.3364 27.8185 36.2445L27.1222 36.0101C26.8971 35.932 26.8327 35.716 26.9292 35.3621C27.1085 34.705 27.4738 34.142 28.0253 33.6733C28.5767 33.1999 29.3948 32.9632 30.4793 32.9632C31.6098 32.9632 32.4301 33.2551 32.9403 33.8387C33.4504 34.4177 33.7054 35.0473 33.7054 35.7275C33.7054 36.619 33.3332 37.4026 32.5887 38.0781C31.8442 38.7491 31.1687 39.404 30.562 40.0427L29.3902 41.2767V41.318C29.6659 41.2996 29.8957 41.2904 30.0795 41.2904H33.2987C33.6434 41.2904 33.8157 41.4398 33.8157 41.7385V42.5519C33.8157 42.8506 33.6434 43 33.2987 43H27.2877ZM35.3529 42.2969C35.1737 42.1452 35.1599 41.9292 35.3116 41.6489L35.6287 41.0699C35.7803 40.7895 36.0262 40.7688 36.3663 41.0078C36.6512 41.21 36.9729 41.3755 37.3313 41.5041C37.6898 41.6282 38.0896 41.6903 38.5308 41.6903C39.1374 41.6903 39.5717 41.5271 39.8336 41.2008C40.0956 40.8699 40.2266 40.5 40.2266 40.091C40.2266 39.6728 40.0703 39.2983 39.7578 38.9674C39.4499 38.6319 39.0133 38.4642 38.4481 38.4642H37.9173C37.6186 38.4642 37.4692 38.3424 37.4692 38.0988V37.3405C37.4692 37.0878 37.6186 36.9614 37.9173 36.9614H38.3309C38.7537 36.9614 39.1259 36.8304 39.4476 36.5685C39.7739 36.3065 39.937 35.9779 39.937 35.5827C39.937 35.2748 39.829 35.0198 39.6131 34.8176C39.4017 34.6108 39.0547 34.5074 38.5722 34.5074C38.1172 34.5074 37.7243 34.574 37.3934 34.7073C37.0625 34.8405 36.8006 35.0014 36.6075 35.1898C36.3318 35.4609 36.0951 35.4494 35.8975 35.1553L35.4977 34.5694C35.346 34.3488 35.392 34.1236 35.6356 33.8938C35.9665 33.5767 36.3938 33.3424 36.9177 33.1907C37.4416 33.0391 37.954 32.9632 38.455 32.9632C39.636 32.9632 40.5138 33.1999 41.0882 33.6733C41.6627 34.142 41.9499 34.7165 41.9499 35.3966C41.9499 35.9021 41.7523 36.364 41.3571 36.7822C40.9619 37.1958 40.5437 37.4807 40.1025 37.6369V37.6645C40.6264 37.7932 41.1227 38.0758 41.5915 38.5124C42.0602 38.9444 42.2946 39.4821 42.2946 40.1255C42.2946 41.1319 41.9775 41.9017 41.3433 42.4347C40.7091 42.9678 39.7417 43.2344 38.4412 43.2344C37.8943 43.2344 37.3267 43.1517 36.7385 42.9862C36.1549 42.8162 35.693 42.5864 35.3529 42.2969ZM43.3631 35.2656C43.3631 34.4384 43.5423 33.7858 43.9007 33.3079C44.2638 32.83 44.813 32.591 45.5483 32.591C46.2835 32.591 46.8304 32.83 47.1889 33.3079C47.5519 33.7858 47.7335 34.4384 47.7335 35.2656C47.7335 36.0928 47.5519 36.7454 47.1889 37.2233C46.8304 37.7013 46.2835 37.9403 45.5483 37.9403C44.813 37.9403 44.2638 37.7013 43.9007 37.2233C43.5423 36.7454 43.3631 36.0928 43.3631 35.2656ZM44.7555 35.2656C44.7555 35.955 44.8244 36.4191 44.9623 36.6581C45.1002 36.8925 45.2955 37.0097 45.5483 37.0097C45.801 37.0097 45.9963 36.8925 46.1342 36.6581C46.2721 36.4191 46.341 35.955 46.341 35.2656C46.341 34.5763 46.2721 34.1144 46.1342 33.8801C45.9963 33.6411 45.801 33.5216 45.5483 33.5216C45.2955 33.5216 45.1002 33.6411 44.9623 33.8801C44.8244 34.1144 44.7555 34.5763 44.7555 35.2656ZM44.921 43.1999C44.7325 43.0666 44.7165 42.8874 44.8727 42.6622L51.9108 32.6117C52.0717 32.3819 52.2463 32.3336 52.4347 32.4669L52.9173 32.8047C53.1057 32.938 53.1218 33.1172 52.9655 33.3424L45.9274 43.3929C45.7665 43.6227 45.5919 43.671 45.4035 43.5377L44.921 43.1999ZM50.1048 40.739C50.1048 39.9118 50.284 39.2592 50.6425 38.7812C51.0055 38.3033 51.5547 38.0643 52.29 38.0643C53.0253 38.0643 53.5722 38.3033 53.9306 38.7812C54.2937 39.2592 54.4752 39.9118 54.4752 40.739C54.4752 41.5662 54.2937 42.2187 53.9306 42.6967C53.5722 43.1746 53.0253 43.4136 52.29 43.4136C51.5547 43.4136 51.0055 43.1746 50.6425 42.6967C50.284 42.2187 50.1048 41.5662 50.1048 40.739ZM51.4972 40.739C51.4972 41.4283 51.5662 41.8925 51.704 42.1314C51.8419 42.3658 52.0372 42.483 52.29 42.483C52.5427 42.483 52.7381 42.3658 52.8759 42.1314C53.0138 41.8925 53.0827 41.4283 53.0827 40.739C53.0827 40.0496 53.0138 39.5878 52.8759 39.3534C52.7381 39.1144 52.5427 38.9949 52.29 38.9949C52.0372 38.9949 51.8419 39.1144 51.704 39.3534C51.5662 39.5878 51.4972 40.0496 51.4972 40.739Z" fill="white"/>
<path d="M84.0984 40.614C83.7996 40.614 83.6503 40.4646 83.6503 40.1659V39.256C83.6503 38.994 83.7192 38.7665 83.8571 38.5735L87.676 33.1967C87.8461 32.9577 88.0597 32.8382 88.3171 32.8382H89.3304C89.6337 32.8382 89.7854 32.9876 89.7854 33.2863V38.9044H90.6195C90.9182 38.9044 91.0676 39.0538 91.0676 39.3525V40.1659C91.0676 40.4646 90.9205 40.614 90.6264 40.614H89.7854V42.3166C89.7854 42.6153 89.636 42.7647 89.3373 42.7647H88.3033C88.0046 42.7647 87.8552 42.6153 87.8552 42.3166V40.614H84.0984ZM85.5735 38.9044H87.8552V36.2367C87.8552 36.0528 87.8644 35.869 87.8828 35.6852H87.8552L85.5735 38.9044ZM92.1016 37.8635C92.1016 36.0023 92.3911 34.6811 92.9701 33.8998C93.5492 33.1186 94.4361 32.7279 95.631 32.7279C96.8258 32.7279 97.7128 33.1186 98.2918 33.8998C98.8709 34.6811 99.1604 36.0023 99.1604 37.8635C99.1604 39.7247 98.8709 41.046 98.2918 41.8272C97.7128 42.6085 96.8258 42.9991 95.631 42.9991C94.4361 42.9991 93.5492 42.6085 92.9701 41.8272C92.3911 41.046 92.1016 39.7247 92.1016 37.8635ZM94.142 37.8635C94.142 38.7137 94.2109 39.5317 94.3488 40.3176C94.4913 41.1034 94.9187 41.4963 95.631 41.4963C96.3433 41.4963 96.7684 41.1034 96.9063 40.3176C97.0487 39.5317 97.12 38.7137 97.12 37.8635C97.12 37.0133 97.0487 36.1953 96.9063 35.4095C96.7684 34.6236 96.3433 34.2307 95.631 34.2307C94.9187 34.2307 94.4913 34.6236 94.3488 35.4095C94.2109 36.1953 94.142 37.0133 94.142 37.8635ZM100.422 35.0303C100.422 34.2031 100.601 33.5505 100.96 33.0726C101.323 32.5947 101.872 32.3557 102.607 32.3557C103.342 32.3557 103.889 32.5947 104.248 33.0726C104.611 33.5505 104.792 34.2031 104.792 35.0303C104.792 35.8575 104.611 36.5101 104.248 36.988C103.889 37.466 103.342 37.705 102.607 37.705C101.872 37.705 101.323 37.466 100.96 36.988C100.601 36.5101 100.422 35.8575 100.422 35.0303ZM101.814 35.0303C101.814 35.7197 101.883 36.1838 102.021 36.4228C102.159 36.6572 102.354 36.7744 102.607 36.7744C102.86 36.7744 103.055 36.6572 103.193 36.4228C103.331 36.1838 103.4 35.7197 103.4 35.0303C103.4 34.341 103.331 33.8791 103.193 33.6448C103.055 33.4058 102.86 33.2863 102.607 33.2863C102.354 33.2863 102.159 33.4058 102.021 33.6448C101.883 33.8791 101.814 34.341 101.814 35.0303ZM101.98 42.9646C101.791 42.8313 101.775 42.6521 101.932 42.4269L108.97 32.3764C109.131 32.1466 109.305 32.0983 109.494 32.2316L109.976 32.5694C110.165 32.7027 110.181 32.8819 110.024 33.1071L102.986 43.1576C102.825 43.3874 102.651 43.4357 102.462 43.3024L101.98 42.9646ZM107.164 40.5037C107.164 39.6765 107.343 39.0239 107.701 38.546C108.064 38.068 108.614 37.829 109.349 37.829C110.084 37.829 110.631 38.068 110.989 38.546C111.352 39.0239 111.534 39.6765 111.534 40.5037C111.534 41.3309 111.352 41.9835 110.989 42.4614C110.631 42.9393 110.084 43.1783 109.349 43.1783C108.614 43.1783 108.064 42.9393 107.701 42.4614C107.343 41.9835 107.164 41.3309 107.164 40.5037ZM108.556 40.5037C108.556 41.193 108.625 41.6572 108.763 41.8961C108.901 42.1305 109.096 42.2477 109.349 42.2477C109.602 42.2477 109.797 42.1305 109.935 41.8961C110.073 41.6572 110.142 41.193 110.142 40.5037C110.142 39.8143 110.073 39.3525 109.935 39.1181C109.797 38.8791 109.602 38.7596 109.349 38.7596C109.096 38.7596 108.901 38.8791 108.763 39.1181C108.625 39.3525 108.556 39.8143 108.556 40.5037Z" fill="white"/>
<path d="M115.246 38.7169C115.246 37.4416 115.467 36.3921 115.908 35.5683C116.352 34.7446 116.794 34.1224 117.231 33.702C117.411 33.5296 117.555 33.4883 117.666 33.5779L118.1 33.9243C118.217 34.0173 118.217 34.1414 118.1 34.2965C117.828 34.6515 117.542 35.1547 117.242 35.8062C116.945 36.4541 116.797 37.4244 116.797 38.7169C116.797 40.0094 116.945 40.9796 117.242 41.6276C117.542 42.279 117.828 42.7823 118.1 43.1373C118.217 43.2924 118.217 43.4165 118.1 43.5095L117.666 43.8559C117.555 43.9455 117.411 43.9042 117.231 43.7318C116.794 43.3113 116.352 42.6892 115.908 41.8654C115.467 41.0417 115.246 39.9922 115.246 38.7169ZM119.491 41.5294C119.284 41.5294 119.18 41.426 119.18 41.2192V36.4111C119.18 36.2043 119.284 36.1008 119.491 36.1008H120.318C120.525 36.1008 120.628 36.2043 120.628 36.4111V41.2192C120.628 41.426 120.525 41.5294 120.318 41.5294H119.491ZM119.491 35.3047C119.284 35.3047 119.18 35.2013 119.18 34.9945V34.3327C119.18 34.1259 119.284 34.0225 119.491 34.0225H120.318C120.525 34.0225 120.628 34.1259 120.628 34.3327V34.9945C120.628 35.2013 120.525 35.3047 120.318 35.3047H119.491ZM121.745 38.8151C121.745 38.0568 121.909 37.3985 122.236 36.8402C122.567 36.2784 123.137 35.9974 123.947 35.9974C124.257 35.9974 124.523 36.0423 124.743 36.1319C124.964 36.2215 125.164 36.4145 125.343 36.7109H125.364C125.35 36.573 125.343 36.4352 125.343 36.2973V34.2086C125.343 34.0018 125.447 33.8984 125.653 33.8984H126.481C126.687 33.8984 126.791 34.0018 126.791 34.2086V41.2192C126.791 41.426 126.687 41.5294 126.481 41.5294H125.664C125.491 41.5294 125.398 41.426 125.385 41.2192L125.364 40.9193H125.343C125.164 41.2157 124.964 41.4088 124.743 41.4984C124.523 41.588 124.257 41.6328 123.947 41.6328C123.137 41.6328 122.567 41.3536 122.236 40.7952C121.909 40.2334 121.745 39.5734 121.745 38.8151ZM123.275 38.8151C123.275 39.3666 123.346 39.806 123.487 40.1335C123.632 40.4575 123.937 40.6195 124.402 40.6195C124.661 40.6195 124.881 40.4747 125.064 40.1852C125.25 39.8922 125.343 39.5131 125.343 39.0478V38.5825C125.343 38.1172 125.25 37.7398 125.064 37.4502C124.881 37.1573 124.661 37.0108 124.402 37.0108C123.937 37.0108 123.632 37.1745 123.487 37.5019C123.346 37.8259 123.275 38.2636 123.275 38.8151ZM127.908 38.8151C127.908 37.9431 128.125 37.2555 128.559 36.7523C128.997 36.2491 129.614 35.9974 130.41 35.9974C131.334 35.9974 132.019 36.2353 132.467 36.7109C132.916 37.1866 133.14 37.9517 133.14 39.0064C133.14 39.2132 133.043 39.3166 132.85 39.3166H129.438C129.493 39.8888 129.634 40.2489 129.862 40.3972C130.089 40.5454 130.353 40.6195 130.653 40.6195C130.939 40.6195 131.158 40.5815 131.309 40.5057C131.461 40.4299 131.589 40.3265 131.692 40.1955C131.809 40.0439 131.954 40.0197 132.126 40.1231L132.643 40.4385C132.847 40.5626 132.876 40.7108 132.731 40.8831C132.521 41.1347 132.274 41.3226 131.992 41.4467C131.709 41.5707 131.263 41.6328 130.653 41.6328C129.664 41.6328 128.959 41.3812 128.538 40.878C128.118 40.3747 127.908 39.6871 127.908 38.8151ZM129.443 38.2826H131.692C131.692 37.9104 131.599 37.6071 131.413 37.3727C131.227 37.1349 130.93 37.0159 130.524 37.0159C130.2 37.0159 129.943 37.1297 129.753 37.3572C129.564 37.5812 129.46 37.8897 129.443 38.2826ZM133.977 40.0818C133.977 39.3924 134.306 38.8927 134.965 38.5825C135.623 38.2723 136.374 38.1068 137.219 38.0861V37.8793C137.219 37.5622 137.139 37.3382 136.981 37.2072C136.822 37.0763 136.602 37.0108 136.319 37.0108C136.119 37.0108 135.942 37.0401 135.787 37.0987C135.635 37.1538 135.502 37.2193 135.389 37.2951C135.278 37.3675 135.178 37.4416 135.089 37.5174C134.93 37.6553 134.799 37.6622 134.696 37.5381L134.267 37.0108C134.16 36.8798 134.186 36.7454 134.344 36.6075C134.465 36.5007 134.604 36.4076 134.763 36.3283C134.925 36.2491 135.139 36.175 135.404 36.106C135.669 36.0336 136.014 35.9974 136.438 35.9974C137.155 35.9974 137.705 36.1629 138.087 36.4938C138.473 36.8247 138.666 37.3124 138.666 37.9569V41.2192C138.666 41.426 138.563 41.5294 138.356 41.5294H137.508C137.322 41.5294 137.229 41.426 137.229 41.2192V41.0641H137.219C137.015 41.2605 136.771 41.4053 136.485 41.4984C136.202 41.588 135.942 41.6328 135.704 41.6328C135.139 41.6328 134.71 41.4949 134.417 41.2192C134.124 40.94 133.977 40.5609 133.977 40.0818ZM135.507 40.0508C135.507 40.1714 135.532 40.2765 135.58 40.3661C135.628 40.4523 135.704 40.5161 135.807 40.5574C135.911 40.5988 136.026 40.6195 136.154 40.6195C136.329 40.6195 136.5 40.5953 136.666 40.5471C136.831 40.4988 137.015 40.3851 137.219 40.2059V39.084C136.64 39.1494 136.252 39.2339 136.055 39.3373C135.859 39.4407 135.718 39.5475 135.632 39.6578C135.549 39.7681 135.507 39.8991 135.507 40.0508ZM140.388 41.5294C140.181 41.5294 140.078 41.426 140.078 41.2192V35.1134C140.078 34.9583 140.114 34.817 140.186 34.6894L140.584 33.9915C140.66 33.8605 140.75 33.795 140.853 33.795H141.215C141.422 33.795 141.525 33.8984 141.525 34.1052V41.2192C141.525 41.426 141.422 41.5294 141.215 41.5294H140.388ZM142.782 43.5095C142.665 43.4165 142.665 43.2924 142.782 43.1373C143.054 42.7823 143.338 42.279 143.635 41.6276C143.935 40.9796 144.085 40.0094 144.085 38.7169C144.085 37.4244 143.935 36.4541 143.635 35.8062C143.338 35.1547 143.054 34.6515 142.782 34.2965C142.665 34.1414 142.665 34.0173 142.782 33.9243L143.216 33.5779C143.326 33.4883 143.471 33.5296 143.65 33.702C144.088 34.1224 144.527 34.7446 144.969 35.5683C145.413 36.3921 145.636 37.4416 145.636 38.7169C145.636 39.9922 145.413 41.0417 144.969 41.8654C144.527 42.6892 144.088 43.3113 143.65 43.7318C143.471 43.9042 143.326 43.9455 143.216 43.8559L142.782 43.5095Z" fill="#75FF83"/>
<rect x="0.647064" y="0.529411" width="199.412" height="14.1176" fill="#2A2A2A"/>
<rect x="0.647064" y="0.529411" width="38.8235" height="14.1176" fill="#E15441"/>
<rect x="39.4706" y="16.4117" width="1.76471" height="10.5882" fill="#D9D9D9"/>
<rect x="95.9412" y="16.4117" width="1.76471" height="10.5882" fill="#D9D9D9"/>
</svg>
